# xmcd
#
# Track frame offsets:
#	150
#	19474
#	39253
#	58575
#	78654
#	97506
#	112106
#	134166
#	150233
#	166189
#	192288
#	213017
#
# Disc length: 3146 seconds
#
# Revision: 2
# Processed by: cddbd v1.5.2PL0 Copyright (c) Steve Scherf et al.
# Submitted via: audiograbber 1.83.01
#
DISCID=940c480c
DTITLE=Trevor Horn - Reimagines - The Eighties
DYEAR=2019
DGENRE=Pop
TTITLE0=Everybody Wants to Rule the World (w Robbie Williams)
TTITLE1=Dancing in the Dark (w Gabrielle Aplin)
TTITLE2=Ashes to Ashes {w Seal)
TTITLE3=The Power of Love (w Matt Carole)
TTITLE4=It's Different for Girls (w Steve Hogarth)
TTITLE5=Slave to the Rhythm (w Rumer)
TTITLE6=Brothers in Arms (w Simple Minds)
TTITLE7=Girls on Film (w All Saints)
TTITLE8=What's Love Got To Do With It? (w Tony Hadley)
TTITLE9=Owner of a Lonely Heart
TTITLE10=Take On Me
TTITLE11=Blue Monday (w Rev Jimmie Wood)
EXTD=
EXTT0=
EXTT1=
EXTT2=
EXTT3=
EXTT4=
EXTT5=
EXTT6=
EXTT7=
EXTT8=
EXTT9=
EXTT10=
EXTT11=
PLAYORDER=
